<?xml version="1.0" standalone="no"?>
<!DOCTYPE svg PUBLIC "-//W3C//DTD SVG 20010904//EN"
 "http://www.w3.org/TR/2001/REC-SVG-20010904/DTD/svg10.dtd">
<svg version="1.0" xmlns="http://www.w3.org/2000/svg"
 width="500.000000pt" height="150.000000pt" viewBox="0 0 500.000000 150.000000"
 preserveAspectRatio="xMidYMid meet">

<g transform="translate(0.000000,150.000000) scale(0.100000,-0.100000)"
fill="#000000" stroke="none">
<path d="M1970 895 l0 -275 25 0 25 0 0 200 c0 110 4 200 8 200 5 0 81 -87
169 -192 88 -106 170 -202 182 -212 l21 -19 0 276 0 277 -25 0 -25 0 -2 -206
-3 -207 -180 217 c-99 119 -183 216 -187 216 -5 0 -8 -124 -8 -275z"/>
<path d="M226 1146 c-160 -60 -231 -239 -153 -392 29 -57 56 -84 112 -112 92
-46 208 -34 280 30 34 29 35 32 19 49 -17 19 -18 19 -38 0 -44 -40 -86 -53
-152 -49 -77 5 -136 41 -168 103 -31 59 -30 176 2 228 41 65 85 91 162 95 70
4 112 -9 156 -49 20 -19 21 -19 39 1 22 25 14 37 -56 74 -61 34 -146 43 -203
22z"/>
<path d="M771 1149 c-19 -6 -53 -23 -76 -39 -170 -117 -148 -378 40 -473 154
-77 346 37 371 220 13 104 -52 225 -149 275 -47 24 -137 32 -186 17z m175 -74
c66 -39 99 -102 99 -191 0 -61 -4 -77 -30 -119 -78 -125 -253 -129 -339 -7
-24 34 -31 55 -34 108 -9 142 70 234 202 234 45 0 69 -6 102 -25z"/>
<path d="M2698 1147 c-145 -48 -223 -211 -172 -359 60 -176 285 -233 419 -104
l45 43 0 86 0 87 -111 0 c-109 0 -110 0 -107 -22 3 -21 9 -23 81 -26 l77 -3 0
-58 c0 -43 -5 -62 -17 -73 -80 -70 -219 -63 -290 14 -83 88 -68 254 30 332 32
26 49 31 108 34 65 4 74 2 120 -27 57 -35 62 -36 78 -18 13 16 -24 55 -78 82
-44 22 -135 28 -183 12z"/>
<path d="M1210 886 l0 -266 108 0 c68 0 128 6 160 15 143 43 220 183 179 326
-21 69 -65 122 -131 157 -46 24 -63 27 -183 30 l-133 4 0 -266z m261 199 c112
-40 170 -172 124 -283 -37 -87 -102 -124 -232 -130 l-93 -4 0 216 0 216 79 0
c45 0 97 -7 122 -15z"/>
<path d="M1780 885 l0 -265 25 0 25 0 0 265 0 265 -25 0 -25 0 0 -265z"/>
<path d="M3470 1010 c0 -29 0 -29 64 -32 l64 -3 -54 -114 c-30 -63 -54 -118
-54 -122 0 -5 15 -9 33 -9 33 0 34 1 95 138 34 75 62 145 62 155 0 15 -12 17
-105 17 l-105 0 0 -30z"/>
<path d="M3757 1033 c-3 -5 -8 -39 -12 -77 -8 -78 -2 -87 52 -79 41 7 63 -10
63 -48 0 -22 -7 -32 -25 -41 -22 -10 -30 -8 -54 10 -29 21 -30 21 -53 3 -23
-19 -23 -19 -4 -40 41 -45 140 -46 180 -2 23 26 31 84 16 121 -14 34 -55 60
-95 60 -22 0 -26 4 -23 23 3 19 10 22 61 25 53 3 57 5 57 27 0 24 -2 25 -79
25 -44 0 -82 -3 -84 -7z"/>
<path d="M4404 770 c-28 -11 -54 -48 -54 -78 0 -32 43 -72 78 -72 33 0 71 23
54 34 -6 3 -13 2 -17 -4 -13 -20 -64 -11 -81 15 -35 54 18 116 70 82 25 -17
46 -7 23 11 -20 16 -51 21 -73 12z"/>
<path d="M4565 768 c-74 -40 -51 -148 31 -148 78 0 103 109 33 145 -33 18 -38
18 -64 3z m63 -24 c42 -29 22 -104 -28 -104 -56 0 -80 60 -40 100 24 24 38 25
68 4z"/>
<path d="M4760 770 c-8 -5 -23 -7 -32 -4 -16 5 -18 -3 -18 -70 0 -44 4 -76 10
-76 6 0 10 24 10 54 0 55 16 86 45 86 24 0 45 -43 45 -92 0 -27 5 -48 10 -48
6 0 10 27 10 60 0 49 3 61 20 70 14 8 26 8 40 0 17 -9 20 -21 20 -70 0 -33 4
-60 10 -60 11 0 14 98 4 125 -11 28 -53 38 -81 20 -21 -14 -26 -14 -45 0 -26
18 -28 18 -48 5z"/>
<path d="M4287 644 c-8 -8 1 -24 14 -24 5 0 9 7 9 15 0 15 -12 20 -23 9z"/>
<path d="M1670 335 c0 -78 3 -95 15 -95 9 0 15 9 15 25 0 14 4 25 8 25 5 0 15
-11 22 -25 9 -16 22 -25 37 -25 l24 0 -25 33 c-25 32 -25 32 -6 57 11 14 20
28 20 33 0 16 -30 5 -48 -18 -11 -14 -23 -25 -26 -25 -3 0 -6 25 -6 55 0 42
-3 55 -15 55 -12 0 -15 -17 -15 -95z"/>
<path d="M2023 415 c-39 -28 -24 -84 26 -100 26 -8 35 -34 15 -42 -9 -3 -26
-1 -37 6 -26 17 -46 -1 -27 -24 16 -19 84 -20 99 -1 22 26 9 69 -26 91 -42 26
-44 50 -3 42 16 -4 32 -2 36 4 17 28 -51 47 -83 24z"/>
<path d="M2168 338 c-29 -78 -33 -94 -20 -97 9 -2 21 4 27 13 16 21 64 21 80
0 6 -9 19 -15 27 -13 14 3 11 17 -19 97 -20 50 -41 92 -48 92 -6 0 -27 -42
-47 -92z m62 -20 c0 -5 -7 -8 -15 -8 -17 0 -18 2 -9 25 5 13 8 14 15 3 5 -7 9
-16 9 -20z"/>
<path d="M1810 330 l0 -90 49 0 c69 0 111 35 111 91 0 61 -33 89 -105 89 l-55
0 0 -90z m98 44 c24 -17 30 -62 10 -82 -7 -7 -25 -12 -40 -12 -27 0 -28 1 -28
55 0 61 14 70 58 39z"/>
<path d="M800 381 c0 -25 -3 -28 -25 -23 -31 5 -55 -13 -55 -43 0 -30 20 -45
58 -42 l32 2 0 68 c0 37 -2 67 -5 67 -3 0 -5 -13 -5 -29z m-6 -53 c8 -14 7
-21 -6 -34 -30 -30 -75 9 -48 42 16 18 39 15 54 -8z"/>
<path d="M882 345 l-2 -71 34 -2 c44 -3 65 26 47 65 -9 20 -17 24 -41 21 -26
-4 -29 -1 -33 26 -2 17 -5 -1 -5 -39z m63 -30 c0 -23 -5 -30 -19 -30 -24 0
-41 27 -33 49 4 11 15 16 29 14 18 -2 23 -9 23 -33z"/>
<path d="M121 333 c1 -38 4 -57 6 -43 3 18 14 30 33 37 48 18 35 73 -17 73
-22 0 -23 -3 -22 -67z m54 32 c0 -13 -8 -21 -22 -23 -19 -3 -23 1 -23 23 0 22
4 26 23 23 14 -2 22 -10 22 -23z"/>
<path d="M1172 354 c-28 -19 -30 -74 -4 -97 23 -21 75 -22 91 -3 15 18 -1 30
-30 21 -19 -6 -49 9 -49 26 0 4 7 15 16 23 11 12 20 13 34 6 13 -7 21 -6 30 5
9 11 7 16 -9 24 -28 15 -53 14 -79 -5z"/>
<path d="M1295 361 c-3 -2 -5 -31 -5 -63 0 -51 2 -58 20 -58 17 0 20 7 20 41
0 32 4 42 20 46 11 3 20 13 20 23 0 14 -8 18 -35 17 -20 -1 -38 -3 -40 -6z"/>
<path d="M1400 360 c-19 -12 -5 -25 27 -25 15 0 28 -5 30 -12 3 -7 -3 -10 -15
-6 -27 7 -62 -14 -62 -36 0 -28 20 -39 73 -39 l47 0 0 44 c0 67 -51 105 -100
74z m60 -79 c0 -11 -26 -22 -34 -14 -12 12 -5 23 14 23 11 0 20 -4 20 -9z"/>
<path d="M1541 344 c-26 -33 -27 -58 -1 -84 21 -21 65 -26 90 -10 20 13 4 25
-33 25 -25 0 -33 5 -35 22 -4 24 32 51 43 33 5 -8 12 -7 22 1 13 11 13 14 -3
26 -28 21 -61 15 -83 -13z"/>
<path d="M222 348 c-15 -15 -15 -51 0 -66 15 -15 51 -15 66 0 28 28 7 78 -33
78 -12 0 -26 -5 -33 -12z m62 -20 c8 -14 7 -21 -6 -34 -30 -30 -75 9 -48 42
16 18 39 15 54 -8z"/>
<path d="M321 348 c0 -7 6 -29 14 -48 l13 -35 13 34 12 34 17 -33 17 -33 16
46 c9 26 12 47 7 47 -5 0 -12 -14 -15 -32 l-7 -32 -18 33 -17 34 -13 -34 -12
-34 -9 33 c-10 32 -20 43 -18 20z"/>
<path d="M459 339 c-16 -31 3 -69 35 -69 14 0 27 4 30 8 2 4 -7 8 -21 7 -14 0
-28 6 -30 13 -3 8 7 12 31 12 37 0 47 15 24 38 -19 19 -56 14 -69 -9z m59 -6
c2 -8 -6 -13 -22 -13 -25 0 -33 10 -19 24 10 10 36 3 41 -11z"/>
<path d="M562 310 c1 -40 2 -41 5 -10 2 19 11 40 20 47 13 10 13 12 -6 10 -18
-1 -21 -7 -19 -47z"/>
<path d="M632 348 c-15 -15 -16 -50 0 -66 15 -15 55 -16 63 -2 4 7 -2 9 -17 5
-16 -4 -29 -1 -37 9 -12 14 -9 16 23 16 33 0 37 3 34 23 -3 25 -45 36 -66 15z
m56 -15 c2 -9 -7 -13 -27 -13 -30 0 -39 9 -24 24 11 10 46 3 51 -11z"/>
<path d="M980 357 c0 -3 7 -24 15 -47 8 -23 12 -54 9 -69 -11 -43 3 -20 30 52
14 37 21 67 16 67 -4 0 -11 -13 -15 -30 -9 -41 -22 -46 -30 -10 -5 24 -25 53
-25 37z"/>
</g>
</svg>
