<svg xmlns="http://www.w3.org/2000/svg" version="1.1" xmlns:xlink="http://www.w3.org/1999/xlink" xmlns:svgjs="http://svgjs.dev/svgjs" width="1440" height="560" preserveAspectRatio="none" viewBox="0 0 1440 560"><g mask="url(&quot;#SvgjsMask1060&quot;)" fill="none"><path d="M68.03 245.82L123.45 277.82L123.45 341.82L68.03 373.82L12.6 341.82L12.6 277.82zM68.03 437.82L123.45 469.82L123.45 533.82L68.03 565.82L12.6 533.82L12.6 469.82zM123.45 149.82L178.88 181.82L178.88 245.82L123.45 277.82L68.03 245.82L68.03 181.82zM234.31 533.82L289.74 565.82L289.74 629.82L234.31 661.82L178.88 629.82L178.88 565.82zM345.16 341.82L400.59 373.82L400.59 437.82L345.16 469.82L289.74 437.82L289.74 373.82zM456.02 341.82L511.44 373.82L511.44 437.82L456.02 469.82L400.59 437.82L400.59 373.82zM677.73 -42.18L733.15 -10.18L733.15 53.82L677.73 85.82L622.3 53.82L622.3 -10.18zM733.15 245.82L788.58 277.82L788.58 341.82L733.15 373.82L677.73 341.82L677.73 277.82zM788.58 341.82L844.01 373.82L844.01 437.82L788.58 469.82L733.15 437.82L733.15 373.82zM788.58 533.82L844.01 565.82L844.01 629.82L788.58 661.82L733.15 629.82L733.15 565.82zM899.44 341.82L954.86 373.82L954.86 437.82L899.44 469.82L844.01 437.82L844.01 373.82zM1010.29 149.82L1065.72 181.82L1065.72 245.82L1010.29 277.82L954.86 245.82L954.86 181.82zM1121.14 -42.18L1176.57 -10.18L1176.57 53.82L1121.14 85.82L1065.72 53.82L1065.72 -10.18zM1287.43 245.82L1342.85 277.82L1342.85 341.82L1287.43 373.82L1232 341.82L1232 277.82zM1287.43 437.82L1342.85 469.82L1342.85 533.82L1287.43 565.82L1232 533.82L1232 469.82zM1232 533.82L1287.43 565.82L1287.43 629.82L1232 661.82L1176.57 629.82L1176.57 565.82zM1342.85 -42.18L1398.28 -10.18L1398.28 53.82L1342.85 85.82L1287.43 53.82L1287.43 -10.18zM1398.28 53.82L1453.71 85.82L1453.71 149.82L1398.28 181.82L1342.85 149.82L1342.85 85.82zM1398.28 245.82L1453.71 277.82L1453.71 341.82L1398.28 373.82L1342.85 341.82L1342.85 277.82z" stroke="rgba(0, 0, 0, 0)" stroke-width="2"></path><path d="M61.63 245.82 a6.4 6.4 0 1 0 12.8 0 a6.4 6.4 0 1 0 -12.8 0zM117.05 277.82 a6.4 6.4 0 1 0 12.8 0 a6.4 6.4 0 1 0 -12.8 0zM117.05 341.82 a6.4 6.4 0 1 0 12.8 0 a6.4 6.4 0 1 0 -12.8 0zM61.63 373.82 a6.4 6.4 0 1 0 12.8 0 a6.4 6.4 0 1 0 -12.8 0zM6.2 341.82 a6.4 6.4 0 1 0 12.8 0 a6.4 6.4 0 1 0 -12.8 0zM6.2 277.82 a6.4 6.4 0 1 0 12.8 0 a6.4 6.4 0 1 0 -12.8 0zM61.63 437.82 a6.4 6.4 0 1 0 12.8 0 a6.4 6.4 0 1 0 -12.8 0zM117.05 469.82 a6.4 6.4 0 1 0 12.8 0 a6.4 6.4 0 1 0 -12.8 0zM117.05 533.82 a6.4 6.4 0 1 0 12.8 0 a6.4 6.4 0 1 0 -12.8 0zM61.63 565.82 a6.4 6.4 0 1 0 12.8 0 a6.4 6.4 0 1 0 -12.8 0zM6.2 533.82 a6.4 6.4 0 1 0 12.8 0 a6.4 6.4 0 1 0 -12.8 0zM6.2 469.82 a6.4 6.4 0 1 0 12.8 0 a6.4 6.4 0 1 0 -12.8 0zM117.05 149.82 a6.4 6.4 0 1 0 12.8 0 a6.4 6.4 0 1 0 -12.8 0zM172.48 181.82 a6.4 6.4 0 1 0 12.8 0 a6.4 6.4 0 1 0 -12.8 0zM172.48 245.82 a6.4 6.4 0 1 0 12.8 0 a6.4 6.4 0 1 0 -12.8 0zM61.63 181.82 a6.4 6.4 0 1 0 12.8 0 a6.4 6.4 0 1 0 -12.8 0zM227.91 533.82 a6.4 6.4 0 1 0 12.8 0 a6.4 6.4 0 1 0 -12.8 0zM283.34 565.82 a6.4 6.4 0 1 0 12.8 0 a6.4 6.4 0 1 0 -12.8 0zM283.34 629.82 a6.4 6.4 0 1 0 12.8 0 a6.4 6.4 0 1 0 -12.8 0zM227.91 661.82 a6.4 6.4 0 1 0 12.8 0 a6.4 6.4 0 1 0 -12.8 0zM172.48 629.82 a6.4 6.4 0 1 0 12.8 0 a6.4 6.4 0 1 0 -12.8 0zM172.48 565.82 a6.4 6.4 0 1 0 12.8 0 a6.4 6.4 0 1 0 -12.8 0zM338.76 341.82 a6.4 6.4 0 1 0 12.8 0 a6.4 6.4 0 1 0 -12.8 0zM394.19 373.82 a6.4 6.4 0 1 0 12.8 0 a6.4 6.4 0 1 0 -12.8 0zM394.19 437.82 a6.4 6.4 0 1 0 12.8 0 a6.4 6.4 0 1 0 -12.8 0zM338.76 469.82 a6.4 6.4 0 1 0 12.8 0 a6.4 6.4 0 1 0 -12.8 0zM283.34 437.82 a6.4 6.4 0 1 0 12.8 0 a6.4 6.4 0 1 0 -12.8 0zM283.34 373.82 a6.4 6.4 0 1 0 12.8 0 a6.4 6.4 0 1 0 -12.8 0zM449.62 341.82 a6.4 6.4 0 1 0 12.8 0 a6.4 6.4 0 1 0 -12.8 0zM505.04 373.82 a6.4 6.4 0 1 0 12.8 0 a6.4 6.4 0 1 0 -12.8 0zM505.04 437.82 a6.4 6.4 0 1 0 12.8 0 a6.4 6.4 0 1 0 -12.8 0zM449.62 469.82 a6.4 6.4 0 1 0 12.8 0 a6.4 6.4 0 1 0 -12.8 0zM671.33 -42.18 a6.4 6.4 0 1 0 12.8 0 a6.4 6.4 0 1 0 -12.8 0zM726.75 -10.18 a6.4 6.4 0 1 0 12.8 0 a6.4 6.4 0 1 0 -12.8 0zM726.75 53.82 a6.4 6.4 0 1 0 12.8 0 a6.4 6.4 0 1 0 -12.8 0zM671.33 85.82 a6.4 6.4 0 1 0 12.8 0 a6.4 6.4 0 1 0 -12.8 0zM615.9 53.82 a6.4 6.4 0 1 0 12.8 0 a6.4 6.4 0 1 0 -12.8 0zM615.9 -10.18 a6.4 6.4 0 1 0 12.8 0 a6.4 6.4 0 1 0 -12.8 0zM726.75 245.82 a6.4 6.4 0 1 0 12.8 0 a6.4 6.4 0 1 0 -12.8 0zM782.18 277.82 a6.4 6.4 0 1 0 12.8 0 a6.4 6.4 0 1 0 -12.8 0zM782.18 341.82 a6.4 6.4 0 1 0 12.8 0 a6.4 6.4 0 1 0 -12.8 0zM726.75 373.82 a6.4 6.4 0 1 0 12.8 0 a6.4 6.4 0 1 0 -12.8 0zM671.33 341.82 a6.4 6.4 0 1 0 12.8 0 a6.4 6.4 0 1 0 -12.8 0zM671.33 277.82 a6.4 6.4 0 1 0 12.8 0 a6.4 6.4 0 1 0 -12.8 0zM837.61 373.82 a6.4 6.4 0 1 0 12.8 0 a6.4 6.4 0 1 0 -12.8 0zM837.61 437.82 a6.4 6.4 0 1 0 12.8 0 a6.4 6.4 0 1 0 -12.8 0zM782.18 469.82 a6.4 6.4 0 1 0 12.8 0 a6.4 6.4 0 1 0 -12.8 0zM726.75 437.82 a6.4 6.4 0 1 0 12.8 0 a6.4 6.4 0 1 0 -12.8 0zM782.18 533.82 a6.4 6.4 0 1 0 12.8 0 a6.4 6.4 0 1 0 -12.8 0zM837.61 565.82 a6.4 6.4 0 1 0 12.8 0 a6.4 6.4 0 1 0 -12.8 0zM837.61 629.82 a6.4 6.4 0 1 0 12.8 0 a6.4 6.4 0 1 0 -12.8 0zM782.18 661.82 a6.4 6.4 0 1 0 12.8 0 a6.4 6.4 0 1 0 -12.8 0zM726.75 629.82 a6.4 6.4 0 1 0 12.8 0 a6.4 6.4 0 1 0 -12.8 0zM726.75 565.82 a6.4 6.4 0 1 0 12.8 0 a6.4 6.4 0 1 0 -12.8 0zM893.04 341.82 a6.4 6.4 0 1 0 12.8 0 a6.4 6.4 0 1 0 -12.8 0zM948.46 373.82 a6.4 6.4 0 1 0 12.8 0 a6.4 6.4 0 1 0 -12.8 0zM948.46 437.82 a6.4 6.4 0 1 0 12.8 0 a6.4 6.4 0 1 0 -12.8 0zM893.04 469.82 a6.4 6.4 0 1 0 12.8 0 a6.4 6.4 0 1 0 -12.8 0zM1003.89 149.82 a6.4 6.4 0 1 0 12.8 0 a6.4 6.4 0 1 0 -12.8 0zM1059.32 181.82 a6.4 6.4 0 1 0 12.8 0 a6.4 6.4 0 1 0 -12.8 0zM1059.32 245.82 a6.4 6.4 0 1 0 12.8 0 a6.4 6.4 0 1 0 -12.8 0zM1003.89 277.82 a6.4 6.4 0 1 0 12.8 0 a6.4 6.4 0 1 0 -12.8 0zM948.46 245.82 a6.4 6.4 0 1 0 12.8 0 a6.4 6.4 0 1 0 -12.8 0zM948.46 181.82 a6.4 6.4 0 1 0 12.8 0 a6.4 6.4 0 1 0 -12.8 0zM1114.74 -42.18 a6.4 6.4 0 1 0 12.8 0 a6.4 6.4 0 1 0 -12.8 0zM1170.17 -10.18 a6.4 6.4 0 1 0 12.8 0 a6.4 6.4 0 1 0 -12.8 0zM1170.17 53.82 a6.4 6.4 0 1 0 12.8 0 a6.4 6.4 0 1 0 -12.8 0zM1114.74 85.82 a6.4 6.4 0 1 0 12.8 0 a6.4 6.4 0 1 0 -12.8 0zM1059.32 53.82 a6.4 6.4 0 1 0 12.8 0 a6.4 6.4 0 1 0 -12.8 0zM1059.32 -10.18 a6.4 6.4 0 1 0 12.8 0 a6.4 6.4 0 1 0 -12.8 0zM1281.03 245.82 a6.4 6.4 0 1 0 12.8 0 a6.4 6.4 0 1 0 -12.8 0zM1336.45 277.82 a6.4 6.4 0 1 0 12.8 0 a6.4 6.4 0 1 0 -12.8 0zM1336.45 341.82 a6.4 6.4 0 1 0 12.8 0 a6.4 6.4 0 1 0 -12.8 0zM1281.03 373.82 a6.4 6.4 0 1 0 12.8 0 a6.4 6.4 0 1 0 -12.8 0zM1225.6 341.82 a6.4 6.4 0 1 0 12.8 0 a6.4 6.4 0 1 0 -12.8 0zM1225.6 277.82 a6.4 6.4 0 1 0 12.8 0 a6.4 6.4 0 1 0 -12.8 0zM1281.03 437.82 a6.4 6.4 0 1 0 12.8 0 a6.4 6.4 0 1 0 -12.8 0zM1336.45 469.82 a6.4 6.4 0 1 0 12.8 0 a6.4 6.4 0 1 0 -12.8 0zM1336.45 533.82 a6.4 6.4 0 1 0 12.8 0 a6.4 6.4 0 1 0 -12.8 0zM1281.03 565.82 a6.4 6.4 0 1 0 12.8 0 a6.4 6.4 0 1 0 -12.8 0zM1225.6 533.82 a6.4 6.4 0 1 0 12.8 0 a6.4 6.4 0 1 0 -12.8 0zM1225.6 469.82 a6.4 6.4 0 1 0 12.8 0 a6.4 6.4 0 1 0 -12.8 0zM1281.03 629.82 a6.4 6.4 0 1 0 12.8 0 a6.4 6.4 0 1 0 -12.8 0zM1225.6 661.82 a6.4 6.4 0 1 0 12.8 0 a6.4 6.4 0 1 0 -12.8 0zM1170.17 629.82 a6.4 6.4 0 1 0 12.8 0 a6.4 6.4 0 1 0 -12.8 0zM1170.17 565.82 a6.4 6.4 0 1 0 12.8 0 a6.4 6.4 0 1 0 -12.8 0zM1336.45 -42.18 a6.4 6.4 0 1 0 12.8 0 a6.4 6.4 0 1 0 -12.8 0zM1391.88 -10.18 a6.4 6.4 0 1 0 12.8 0 a6.4 6.4 0 1 0 -12.8 0zM1391.88 53.82 a6.4 6.4 0 1 0 12.8 0 a6.4 6.4 0 1 0 -12.8 0zM1336.45 85.82 a6.4 6.4 0 1 0 12.8 0 a6.4 6.4 0 1 0 -12.8 0zM1281.03 53.82 a6.4 6.4 0 1 0 12.8 0 a6.4 6.4 0 1 0 -12.8 0zM1281.03 -10.18 a6.4 6.4 0 1 0 12.8 0 a6.4 6.4 0 1 0 -12.8 0zM1447.31 85.82 a6.4 6.4 0 1 0 12.8 0 a6.4 6.4 0 1 0 -12.8 0zM1447.31 149.82 a6.4 6.4 0 1 0 12.8 0 a6.4 6.4 0 1 0 -12.8 0zM1391.88 181.82 a6.4 6.4 0 1 0 12.8 0 a6.4 6.4 0 1 0 -12.8 0zM1336.45 149.82 a6.4 6.4 0 1 0 12.8 0 a6.4 6.4 0 1 0 -12.8 0zM1391.88 245.82 a6.4 6.4 0 1 0 12.8 0 a6.4 6.4 0 1 0 -12.8 0zM1447.31 277.82 a6.4 6.4 0 1 0 12.8 0 a6.4 6.4 0 1 0 -12.8 0zM1447.31 341.82 a6.4 6.4 0 1 0 12.8 0 a6.4 6.4 0 1 0 -12.8 0zM1391.88 373.82 a6.4 6.4 0 1 0 12.8 0 a6.4 6.4 0 1 0 -12.8 0z" fill="rgba(0, 0, 0, 0)"></path><path d="M0 -49L42.44 -24.5L42.44 24.5L0 49L-42.44 24.5L-42.44 -24.5zM42.44 24.5L84.87 49L84.87 98L42.44 122.5L0 98L0 49zM0 98L42.44 122.5L42.44 171.5L0 196L-42.44 171.5L-42.44 122.5zM42.44 171.5L84.87 196L84.87 245L42.44 269.5L0 245L0 196zM0 245L42.44 269.5L42.44 318.5L0 343L-42.44 318.5L-42.44 269.5zM42.44 318.5L84.87 343L84.87 392L42.44 416.5L0 392L0 343zM0 392L42.44 416.5L42.44 465.5L0 490L-42.44 465.5L-42.44 416.5zM42.44 465.5L84.87 490L84.87 539L42.44 563.5L0 539L0 490zM0 539L42.44 563.5L42.44 612.5L0 637L-42.44 612.5L-42.44 563.5zM84.87 -49L127.31 -24.5L127.31 24.5L84.87 49L42.44 24.5L42.44 -24.5zM127.31 24.5L169.75 49L169.75 98L127.31 122.5L84.87 98L84.87 49zM84.87 98L127.31 122.5L127.31 171.5L84.87 196L42.44 171.5L42.44 122.5zM127.31 171.5L169.75 196L169.75 245L127.31 269.5L84.87 245L84.87 196zM84.87 245L127.31 269.5L127.31 318.5L84.87 343L42.44 318.5L42.44 269.5zM127.31 318.5L169.75 343L169.75 392L127.31 416.5L84.87 392L84.87 343zM84.87 392L127.31 416.5L127.31 465.5L84.87 490L42.44 465.5L42.44 416.5zM127.31 465.5L169.75 490L169.75 539L127.31 563.5L84.87 539L84.87 490zM84.87 539L127.31 563.5L127.31 612.5L84.87 637L42.44 612.5L42.44 563.5zM169.75 -49L212.18 -24.5L212.18 24.5L169.75 49L127.31 24.5L127.31 -24.5zM212.18 24.5L254.62 49L254.62 98L212.18 122.5L169.75 98L169.75 49zM169.75 98L212.18 122.5L212.18 171.5L169.75 196L127.31 171.5L127.31 122.5zM212.18 171.5L254.62 196L254.62 245L212.18 269.5L169.75 245L169.75 196zM169.75 245L212.18 269.5L212.18 318.5L169.75 343L127.31 318.5L127.31 269.5zM212.18 318.5L254.62 343L254.62 392L212.18 416.5L169.75 392L169.75 343zM169.75 392L212.18 416.5L212.18 465.5L169.75 490L127.31 465.5L127.31 416.5zM212.18 465.5L254.62 490L254.62 539L212.18 563.5L169.75 539L169.75 490zM169.75 539L212.18 563.5L212.18 612.5L169.75 637L127.31 612.5L127.31 563.5zM254.62 -49L297.06 -24.5L297.06 24.5L254.62 49L212.18 24.5L212.18 -24.5zM297.06 24.5L339.49 49L339.49 98L297.06 122.5L254.62 98L254.62 49zM254.62 98L297.06 122.5L297.06 171.5L254.62 196L212.18 171.5L212.18 122.5zM297.06 171.5L339.49 196L339.49 245L297.06 269.5L254.62 245L254.62 196zM254.62 245L297.06 269.5L297.06 318.5L254.62 343L212.18 318.5L212.18 269.5zM297.06 318.5L339.49 343L339.49 392L297.06 416.5L254.62 392L254.62 343zM254.62 392L297.06 416.5L297.06 465.5L254.62 490L212.18 465.5L212.18 416.5zM297.06 465.5L339.49 490L339.49 539L297.06 563.5L254.62 539L254.62 490zM254.62 539L297.06 563.5L297.06 612.5L254.62 637L212.18 612.5L212.18 563.5zM339.49 -49L381.93 -24.5L381.93 24.5L339.49 49L297.06 24.5L297.06 -24.5zM381.93 24.5L424.36 49L424.36 98L381.93 122.5L339.49 98L339.49 49zM339.49 98L381.93 122.5L381.93 171.5L339.49 196L297.06 171.5L297.06 122.5zM381.93 171.5L424.36 196L424.36 245L381.93 269.5L339.49 245L339.49 196zM339.49 245L381.93 269.5L381.93 318.5L339.49 343L297.06 318.5L297.06 269.5zM381.93 318.5L424.36 343L424.36 392L381.93 416.5L339.49 392L339.49 343zM339.49 392L381.93 416.5L381.93 465.5L339.49 490L297.06 465.5L297.06 416.5zM381.93 465.5L424.36 490L424.36 539L381.93 563.5L339.49 539L339.49 490zM339.49 539L381.93 563.5L381.93 612.5L339.49 637L297.06 612.5L297.06 563.5zM424.36 -49L466.8 -24.5L466.8 24.5L424.36 49L381.93 24.5L381.93 -24.5zM466.8 24.5L509.24 49L509.24 98L466.8 122.5L424.36 98L424.36 49zM424.36 98L466.8 122.5L466.8 171.5L424.36 196L381.93 171.5L381.93 122.5zM466.8 171.5L509.24 196L509.24 245L466.8 269.5L424.36 245L424.36 196zM424.36 245L466.8 269.5L466.8 318.5L424.36 343L381.93 318.5L381.93 269.5zM466.8 318.5L509.24 343L509.24 392L466.8 416.5L424.36 392L424.36 343zM424.36 392L466.8 416.5L466.8 465.5L424.36 490L381.93 465.5L381.93 416.5zM466.8 465.5L509.24 490L509.24 539L466.8 563.5L424.36 539L424.36 490zM424.36 539L466.8 563.5L466.8 612.5L424.36 637L381.93 612.5L381.93 563.5zM509.24 -49L551.67 -24.5L551.67 24.5L509.24 49L466.8 24.5L466.8 -24.5zM551.67 24.5L594.11 49L594.11 98L551.67 122.5L509.24 98L509.24 49zM509.24 98L551.67 122.5L551.67 171.5L509.24 196L466.8 171.5L466.8 122.5zM551.67 171.5L594.11 196L594.11 245L551.67 269.5L509.24 245L509.24 196zM509.24 245L551.67 269.5L551.67 318.5L509.24 343L466.8 318.5L466.8 269.5zM551.67 318.5L594.11 343L594.11 392L551.67 416.5L509.24 392L509.24 343zM509.24 392L551.67 416.5L551.67 465.5L509.24 490L466.8 465.5L466.8 416.5zM551.67 465.5L594.11 490L594.11 539L551.67 563.5L509.24 539L509.24 490zM509.24 539L551.67 563.5L551.67 612.5L509.24 637L466.8 612.5L466.8 563.5zM594.11 -49L636.55 -24.5L636.55 24.5L594.11 49L551.67 24.5L551.67 -24.5zM636.55 24.5L678.98 49L678.98 98L636.55 122.5L594.11 98L594.11 49zM594.11 98L636.55 122.5L636.55 171.5L594.11 196L551.67 171.5L551.67 122.5zM636.55 171.5L678.98 196L678.98 245L636.55 269.5L594.11 245L594.11 196zM594.11 245L636.55 269.5L636.55 318.5L594.11 343L551.67 318.5L551.67 269.5zM636.55 318.5L678.98 343L678.98 392L636.55 416.5L594.11 392L594.11 343zM594.11 392L636.55 416.5L636.55 465.5L594.11 490L551.67 465.5L551.67 416.5zM636.55 465.5L678.98 490L678.98 539L636.55 563.5L594.11 539L594.11 490zM594.11 539L636.55 563.5L636.55 612.5L594.11 637L551.67 612.5L551.67 563.5zM678.98 -49L721.42 -24.5L721.42 24.5L678.98 49L636.55 24.5L636.55 -24.5zM721.42 24.5L763.86 49L763.86 98L721.42 122.5L678.98 98L678.98 49zM678.98 98L721.42 122.5L721.42 171.5L678.98 196L636.55 171.5L636.55 122.5zM721.42 171.5L763.86 196L763.86 245L721.42 269.5L678.98 245L678.98 196zM678.98 245L721.42 269.5L721.42 318.5L678.98 343L636.55 318.5L636.55 269.5zM721.42 318.5L763.86 343L763.86 392L721.42 416.5L678.98 392L678.98 343zM678.98 392L721.42 416.5L721.42 465.5L678.98 490L636.55 465.5L636.55 416.5zM721.42 465.5L763.86 490L763.86 539L721.42 563.5L678.98 539L678.98 490zM678.98 539L721.42 563.5L721.42 612.5L678.98 637L636.55 612.5L636.55 563.5zM763.86 -49L806.29 -24.5L806.29 24.5L763.86 49L721.42 24.5L721.42 -24.5zM806.29 24.5L848.73 49L848.73 98L806.29 122.5L763.86 98L763.86 49zM763.86 98L806.29 122.5L806.29 171.5L763.86 196L721.42 171.5L721.42 122.5zM806.29 171.5L848.73 196L848.73 245L806.29 269.5L763.86 245L763.86 196zM763.86 245L806.29 269.5L806.29 318.5L763.86 343L721.42 318.5L721.42 269.5zM806.29 318.5L848.73 343L848.73 392L806.29 416.5L763.86 392L763.86 343zM763.86 392L806.29 416.5L806.29 465.5L763.86 490L721.42 465.5L721.42 416.5zM806.29 465.5L848.73 490L848.73 539L806.29 563.5L763.86 539L763.86 490zM763.86 539L806.29 563.5L806.29 612.5L763.86 637L721.42 612.5L721.42 563.5zM848.73 -49L891.17 -24.5L891.17 24.5L848.73 49L806.29 24.5L806.29 -24.5zM891.17 24.5L933.6 49L933.6 98L891.17 122.5L848.73 98L848.73 49zM848.73 98L891.17 122.5L891.17 171.5L848.73 196L806.29 171.5L806.29 122.5zM891.17 171.5L933.6 196L933.6 245L891.17 269.5L848.73 245L848.73 196zM848.73 245L891.17 269.5L891.17 318.5L848.73 343L806.29 318.5L806.29 269.5zM891.17 318.5L933.6 343L933.6 392L891.17 416.5L848.73 392L848.73 343zM848.73 392L891.17 416.5L891.17 465.5L848.73 490L806.29 465.5L806.29 416.5zM891.17 465.5L933.6 490L933.6 539L891.17 563.5L848.73 539L848.73 490zM848.73 539L891.17 563.5L891.17 612.5L848.73 637L806.29 612.5L806.29 563.5zM933.6 -49L976.04 -24.5L976.04 24.5L933.6 49L891.17 24.5L891.17 -24.5zM976.04 24.5L1018.47 49L1018.47 98L976.04 122.5L933.6 98L933.6 49zM933.6 98L976.04 122.5L976.04 171.5L933.6 196L891.17 171.5L891.17 122.5zM976.04 171.5L1018.47 196L1018.47 245L976.04 269.5L933.6 245L933.6 196zM933.6 245L976.04 269.5L976.04 318.5L933.6 343L891.17 318.5L891.17 269.5zM976.04 318.5L1018.47 343L1018.47 392L976.04 416.5L933.6 392L933.6 343zM933.6 392L976.04 416.5L976.04 465.5L933.6 490L891.17 465.5L891.17 416.5zM976.04 465.5L1018.47 490L1018.47 539L976.04 563.5L933.6 539L933.6 490zM933.6 539L976.04 563.5L976.04 612.5L933.6 637L891.17 612.5L891.17 563.5zM1018.47 -49L1060.91 -24.5L1060.91 24.5L1018.47 49L976.04 24.5L976.04 -24.5zM1060.91 24.5L1103.35 49L1103.35 98L1060.91 122.5L1018.47 98L1018.47 49zM1018.47 98L1060.91 122.5L1060.91 171.5L1018.47 196L976.04 171.5L976.04 122.5zM1060.91 171.5L1103.35 196L1103.35 245L1060.91 269.5L1018.47 245L1018.47 196zM1018.47 245L1060.91 269.5L1060.91 318.5L1018.47 343L976.04 318.5L976.04 269.5zM1060.91 318.5L1103.35 343L1103.35 392L1060.91 416.5L1018.47 392L1018.47 343zM1018.47 392L1060.91 416.5L1060.91 465.5L1018.47 490L976.04 465.5L976.04 416.5zM1060.91 465.5L1103.35 490L1103.35 539L1060.91 563.5L1018.47 539L1018.47 490zM1018.47 539L1060.91 563.5L1060.91 612.5L1018.47 637L976.04 612.5L976.04 563.5zM1103.35 -49L1145.78 -24.5L1145.78 24.5L1103.35 49L1060.91 24.5L1060.91 -24.5zM1145.78 24.5L1188.22 49L1188.22 98L1145.78 122.5L1103.35 98L1103.35 49zM1103.35 98L1145.78 122.5L1145.78 171.5L1103.35 196L1060.91 171.5L1060.91 122.5zM1145.78 171.5L1188.22 196L1188.22 245L1145.78 269.5L1103.35 245L1103.35 196zM1103.35 245L1145.78 269.5L1145.78 318.5L1103.35 343L1060.91 318.5L1060.91 269.5zM1145.78 318.5L1188.22 343L1188.22 392L1145.78 416.5L1103.35 392L1103.35 343zM1103.35 392L1145.78 416.5L1145.78 465.5L1103.35 490L1060.91 465.5L1060.91 416.5zM1145.78 465.5L1188.22 490L1188.22 539L1145.78 563.5L1103.35 539L1103.35 490zM1103.35 539L1145.78 563.5L1145.78 612.5L1103.35 637L1060.91 612.5L1060.91 563.5zM1188.22 -49L1230.66 -24.5L1230.66 24.5L1188.22 49L1145.78 24.5L1145.78 -24.5zM1230.66 24.5L1273.09 49L1273.09 98L1230.66 122.5L1188.22 98L1188.22 49zM1188.22 98L1230.66 122.5L1230.66 171.5L1188.22 196L1145.78 171.5L1145.78 122.5zM1230.66 171.5L1273.09 196L1273.09 245L1230.66 269.5L1188.22 245L1188.22 196zM1188.22 245L1230.66 269.5L1230.66 318.5L1188.22 343L1145.78 318.5L1145.78 269.5zM1230.66 318.5L1273.09 343L1273.09 392L1230.66 416.5L1188.22 392L1188.22 343zM1188.22 392L1230.66 416.5L1230.66 465.5L1188.22 490L1145.78 465.5L1145.78 416.5zM1230.66 465.5L1273.09 490L1273.09 539L1230.66 563.5L1188.22 539L1188.22 490zM1188.22 539L1230.66 563.5L1230.66 612.5L1188.22 637L1145.78 612.5L1145.78 563.5zM1273.09 -49L1315.53 -24.5L1315.53 24.5L1273.09 49L1230.66 24.5L1230.66 -24.5zM1315.53 24.5L1357.97 49L1357.97 98L1315.53 122.5L1273.09 98L1273.09 49zM1273.09 98L1315.53 122.5L1315.53 171.5L1273.09 196L1230.66 171.5L1230.66 122.5zM1315.53 171.5L1357.97 196L1357.97 245L1315.53 269.5L1273.09 245L1273.09 196zM1273.09 245L1315.53 269.5L1315.53 318.5L1273.09 343L1230.66 318.5L1230.66 269.5zM1315.53 318.5L1357.97 343L1357.97 392L1315.53 416.5L1273.09 392L1273.09 343zM1273.09 392L1315.53 416.5L1315.53 465.5L1273.09 490L1230.66 465.5L1230.66 416.5zM1315.53 465.5L1357.97 490L1357.97 539L1315.53 563.5L1273.09 539L1273.09 490zM1273.09 539L1315.53 563.5L1315.53 612.5L1273.09 637L1230.66 612.5L1230.66 563.5zM1357.97 -49L1400.4 -24.5L1400.4 24.5L1357.97 49L1315.53 24.5L1315.53 -24.5zM1400.4 24.5L1442.84 49L1442.84 98L1400.4 122.5L1357.97 98L1357.97 49zM1357.97 98L1400.4 122.5L1400.4 171.5L1357.97 196L1315.53 171.5L1315.53 122.5zM1400.4 171.5L1442.84 196L1442.84 245L1400.4 269.5L1357.97 245L1357.97 196zM1357.97 245L1400.4 269.5L1400.4 318.5L1357.97 343L1315.53 318.5L1315.53 269.5zM1400.4 318.5L1442.84 343L1442.84 392L1400.4 416.5L1357.97 392L1357.97 343zM1357.97 392L1400.4 416.5L1400.4 465.5L1357.97 490L1315.53 465.5L1315.53 416.5zM1400.4 465.5L1442.84 490L1442.84 539L1400.4 563.5L1357.97 539L1357.97 490zM1357.97 539L1400.4 563.5L1400.4 612.5L1357.97 637L1315.53 612.5L1315.53 563.5z" stroke="rgba(226, 226, 227, 0.93)" stroke-width="2"></path></g><defs><mask id="SvgjsMask1060"><rect width="1440" height="560" fill="#ffffff"></rect></mask></defs></svg>